<?xml version="1.0" encoding="UTF-8" standalone="no"?>
<!-- Generator: Adobe Illustrator 16.0.0, SVG Export Plug-In . SVG Version: 6.00 Build 0)  -->

<svg
   version="1.1"
   id="Calque_1"
   x="0px"
   y="0px"
   width="260.89001"
   height="94.472"
   viewBox="0 0 260.89002 94.472003"
   enable-background="new 0 0 371.749 129.401"
   xml:space="preserve"
   sodipodi:docname="ICCV-logo.svg"
   inkscape:version="1.2.2 (b0a84865, 2022-12-01)"
   xmlns:inkscape="http://www.inkscape.org/namespaces/inkscape"
   xmlns:sodipodi="http://sodipodi.sourceforge.net/DTD/sodipodi-0.dtd"
   xmlns:xlink="http://www.w3.org/1999/xlink"
   xmlns="http://www.w3.org/2000/svg"
   xmlns:svg="http://www.w3.org/2000/svg"><defs
   id="defs237" /><sodipodi:namedview
   id="namedview235"
   pagecolor="#ffffff"
   bordercolor="#000000"
   borderopacity="0.25"
   inkscape:showpageshadow="2"
   inkscape:pageopacity="0.0"
   inkscape:pagecheckerboard="0"
   inkscape:deskcolor="#d1d1d1"
   showgrid="false"
   inkscape:zoom="5.2244238"
   inkscape:cx="130.44501"
   inkscape:cy="47.277941"
   inkscape:window-width="1848"
   inkscape:window-height="1264"
   inkscape:window-x="0"
   inkscape:window-y="25"
   inkscape:window-maximized="0"
   inkscape:current-layer="g771" />







<g
   id="g771"><g
     id="g175">
	<defs
   id="defs163">
		<rect
   id="SVGID_7_"
   y="1.676"
   width="13.025"
   height="86.310997"
   x="0" />
	</defs>
	<clipPath
   id="SVGID_8_">
		<use
   xlink:href="#SVGID_7_"
   overflow="visible"
   id="use165" />
	</clipPath>
	
		<linearGradient
   id="SVGID_9_"
   gradientUnits="userSpaceOnUse"
   x1="-117.019"
   y1="538.62109"
   x2="-116.019"
   y2="538.62109"
   gradientTransform="matrix(297.2917,-1.3302,-1.3302,-297.2917,35527.719,160016.19)">
		<stop
   offset="0"
   style="stop-color:#6C4795"
   id="stop168" />
		<stop
   offset="1"
   style="stop-color:#23366C"
   id="stop170" />
	</linearGradient>
	<polygon
   clip-path="url(#SVGID_8_)"
   fill="url(#SVGID_9_)"
   points="-0.386,1.678 13.025,1.618 13.411,87.985 0,88.045 "
   id="polygon173"
   style="fill:url(#SVGID_9_)" />
</g><g
     id="g190">
	<defs
   id="defs178">
		<path
   id="SVGID_10_"
   d="m 40.36,15.819 c -7.267,8.608 -10.9,18.41 -10.9,29.404 0,12.261 4.341,22.733 13.024,31.416 8.721,8.609 19.249,12.913 31.584,12.913 8.198,0 16.025,-2.105 23.479,-6.317 V 67.528 c -2.124,1.788 -4.146,3.317 -6.065,4.583 -1.92,1.267 -3.774,2.274 -5.563,3.019 -3.206,1.491 -7.099,2.236 -11.683,2.236 -8.87,0 -16.361,-3.111 -22.472,-9.335 -6.112,-6.224 -9.168,-13.864 -9.168,-22.92 0,-9.168 3.056,-16.919 9.168,-23.255 6.073,-6.373 13.546,-9.559 22.417,-9.559 8.049,0 15.838,3.15 23.366,9.447 V 6.316 C 90.317,2.105 82.826,0 75.074,0 60.876,0 49.305,5.273 40.36,15.819" />
	</defs>
	<clipPath
   id="SVGID_11_">
		<use
   xlink:href="#SVGID_10_"
   overflow="visible"
   id="use180" />
	</clipPath>
	
		<linearGradient
   id="SVGID_12_"
   gradientUnits="userSpaceOnUse"
   x1="-117.019"
   y1="538.62109"
   x2="-116.019"
   y2="538.62109"
   gradientTransform="matrix(297.2917,-1.3302,-1.3302,-297.2917,35527.719,160016.44)">
		<stop
   offset="0"
   style="stop-color:#6C4795"
   id="stop183" />
		<stop
   offset="1"
   style="stop-color:#23366C"
   id="stop185" />
	</linearGradient>
	<polygon
   clip-path="url(#SVGID_11_)"
   fill="url(#SVGID_12_)"
   points="29.059,0.002 97.545,-0.305 97.948,89.55 29.461,89.857 "
   id="polygon188"
   style="fill:url(#SVGID_12_)" />
</g><g
     id="g205">
	<defs
   id="defs193">
		<path
   id="SVGID_13_"
   d="m 120.578,15.819 c -7.267,8.608 -10.9,18.41 -10.9,29.404 0,12.261 4.34,22.733 13.024,31.416 8.721,8.609 19.249,12.913 31.584,12.913 8.199,0 16.025,-2.105 23.478,-6.317 V 67.528 c -2.125,1.788 -4.146,3.317 -6.064,4.583 -1.92,1.267 -3.774,2.274 -5.562,3.019 -3.206,1.491 -7.1,2.236 -11.684,2.236 -8.87,0 -16.361,-3.111 -22.472,-9.335 -6.113,-6.224 -9.168,-13.864 -9.168,-22.92 0,-9.168 3.055,-16.919 9.168,-23.255 6.073,-6.373 13.546,-9.559 22.416,-9.559 8.05,0 15.84,3.15 23.366,9.447 V 6.316 C 170.535,2.105 163.044,0 155.292,0 141.094,0 129.523,5.273 120.578,15.819" />
	</defs>
	<clipPath
   id="SVGID_14_">
		<use
   xlink:href="#SVGID_13_"
   overflow="visible"
   id="use195" />
	</clipPath>
	
		<linearGradient
   id="SVGID_15_"
   gradientUnits="userSpaceOnUse"
   x1="-117.019"
   y1="538.62109"
   x2="-116.019"
   y2="538.62109"
   gradientTransform="matrix(297.2917,-1.3302,-1.3302,-297.2917,35527.719,160016.69)">
		<stop
   offset="0"
   style="stop-color:#6C4795"
   id="stop198" />
		<stop
   offset="1"
   style="stop-color:#23366C"
   id="stop200" />
	</linearGradient>
	<polygon
   clip-path="url(#SVGID_14_)"
   fill="url(#SVGID_15_)"
   points="109.277,0.002 177.763,-0.305 178.165,89.55 109.679,89.857 "
   id="polygon203"
   style="fill:url(#SVGID_15_)" />
</g><g
     id="g220">
	<defs
   id="defs208">
		<polygon
   id="SVGID_16_"
   points="198.562,1.676 184.306,1.676 222.15,94.472 260.89,1.676 246.635,1.676 222.43,61.49 " />
	</defs>
	<clipPath
   id="SVGID_17_">
		<use
   xlink:href="#SVGID_16_"
   overflow="visible"
   id="use210" />
	</clipPath>
	
		<linearGradient
   id="SVGID_18_"
   gradientUnits="userSpaceOnUse"
   x1="-117.019"
   y1="538.61908"
   x2="-116.019"
   y2="538.61908"
   gradientTransform="matrix(297.2917,-1.3302,-1.3302,-297.2917,35527.719,160020.19)">
		<stop
   offset="0"
   style="stop-color:#6C4795"
   id="stop213" />
		<stop
   offset="1"
   style="stop-color:#23366C"
   id="stop215" />
	</linearGradient>
	<polygon
   clip-path="url(#SVGID_17_)"
   fill="url(#SVGID_18_)"
   points="183.891,1.678 260.888,1.333 261.305,94.47 184.307,94.815 "
   id="polygon218"
   style="fill:url(#SVGID_18_)" />
</g></g></svg>
